<svg xmlns="http://www.w3.org/2000/svg" viewBox="0 0 512 512">
  <path
    fill="#151a20"
    d="M414.7 122A34389 34389 0 0 0 285 62.7C264 53 226 30.2 191.4 39c-34.4 8.7-56.6 46.2-71 65.3-15.7 20.4-83.4 110.2-86 113.7a39.5 39.5 0 0 0-6.4 33l52.8 209.3a39.5 39.5 0 0 0 48 28.6L460.3 405a39.5 39.5 0 0 0 28.6-47.9L436 148a39.5 39.5 0 0 0-21.3-26zm34.7 240.1a5 5 0 0 1-3.5 6l-322 81.3a5 5 0 0 1-6-3.5l-51-202.2a5 5 0 0 1 .7-4.2c10.1-13.4 69.1-91.7 84.1-111.3 11.6-15.3 30.6-46.2 49.4-51 18.9-4.8 50.8 13.8 67.6 21.4 22.6 10.2 111.7 51 127 58a5 5 0 0 1 2.7 3.4zm-63.3-143.2a9.9 9.9 0 0 1 2 14 21287 21287 0 0 1-45 59.5c-14.5 19-36.7 56.7-71.1 65.4-34.7 8.7-72.5-14.2-93.6-23.8-10.8-4.8-40-18.2-68-31a9.9 9.9 0 0 1-4.8-13.2L114 272c2.3-5 8.1-7 13-4.8l67.7 30.9c16.8 7.6 48.7 26.2 67.6 21.4 18.8-4.8 37.8-35.7 49.4-51l44.8-59.3a9.9 9.9 0 0 1 13.7-2z"
  />
</svg>