<svg xmlns="http://www.w3.org/2000/svg" xmlns:xlink="http://www.w3.org/1999/xlink" viewBox="0 0 80 80">
  <defs>
    <linearGradient id="a">
      <stop offset="0" stop-color="#c5ced7"/>
      <stop offset="1" stop-color="#c5ced7" stop-opacity="0"/>
    </linearGradient>
    <radialGradient id="b" cx="104" cy="174" r="40" fx="104" fy="174" gradientTransform="matrix(.67864 -.6795 .69318 .6923 -86 100)" gradientUnits="userSpaceOnUse" xlink:href="#a"/>
  </defs>
  <path fill="url(#b)" d="M145 149c1 25-27 46-52 38-25-7-36-40-21-61 14-22 49-23 64-2 6 7 9 16 9 25z" paint-order="stroke markers fill" transform="translate(-65 -109)"/>
  <path fill="#dbe0e6" d="M72 40c0 20-22 37-42 30-19-5-29-32-16-48C25 4 53 3 65 20c4 6 7 13 7 20z" paint-order="stroke markers fill"/>
  <path fill="#c5ced7" d="M40 8a32 32 0 0 0-26 14c-1 2-3 3 0 4l-2 6c2 2 1 6 3 7 1-3 1 3 3 0 2 0 3-1 4 2 1 1 0 2-1 1 0 2-4 1-4 4 0 2 5 7 6 3 2-1-2-6 2-5 3 2-2-6 1-2 4 0 1 3 0 4-3-1-1 4 1 4 0-1 0-3 1-1 0 3 3 1 3 3 1-2 6 0 4-3-1-3 4-4 1-6 1-2-1-3-1-4-3 0 0 6-3 4 0-3-4-5 0-7-1-3-3 1-5-1-3 2 4 2 0 3-3 4-2-2 0-3 2-2-2-3-1-5-3 2-5-2-2-4 2-4 2 2 2 4 2 1 6 3 3 0-2-2 0-6 2-5 0-2 0-1 2 0 0-2 2 2 2-1 2 0 0 3 2 2 1 3 10 1 5-2 0-4 5 4 5 0-2-2 5 1 2 2 0 2-2 2 0 4s3 3 3 1c3 0 4 3 1 3 0 3-2 7 2 9 1 2-4 2-1 4 2 2 4 4 1 4l2 5c1-3 4-6 0-8-1-2 2-9 4-5 1 1 3 0 1 2-1 3-2 6 2 8-2 1-5 1-3 5 2-1 5-2 3-3 2-2 2-5 4-6 1-1 3-3 1-3-2-2-3-6-5-6 2-2-2-4-1-6-1-1 1-4-2-2-4 1 0-5-2-7 1 0 4 3 3 0 0-3-4-2-5-4-2 1-5 0-7 2-1-1 1-4-1-5 0-3-6-3-6-5 5-1 8 2 10 5 2 0 5 0 3 2 4 2 4-5 0-5-3 0-6-1-8-3-2-1-8-3-7-1 2 3-4 2-6 2-1 1-5 4-6 2 2-4 7-3 10-4-1-3-7 1-8-2a31 31 0 0 1 9-1zm5 5c-2 1 2 1 0 0zm15 2c1 1 4 4 0 0zm-7 1c5 2-1 2 0 0zm9 1c1 1 4 4 0 0zm1 2c-1 0 0 0 0 0zm1 0c1 1 4 5 0 0zm-49 1c1 1-2 1 0 0zm49 1c0 2 3 3 1 1zm2 1c1 1 2 3 0 0zm2 3s1 2 0 0zm1 3l1 1zm-29 1c-1 1-2 3-5 2 0 3-4-1-3 2 2 2 2 6 5 5 1-1 1-4 3-2l3-6-3-1zm6 0c-2 1-3 4 0 4 0 4 6 0 2-2l-2-2zm24 2l1 1zm-5 1c-1 1 1 0 0 0zm-55 0c-1 1 1 1 0 0zm2 1c-3 1-1 5 0 1v-1zm57 1c-3 0-2 9 1 7 2-2 1-6-1-7zm2 0v1zm-28 2c-4 0-1 3 1 1 1-1 0-2-1-1zm28 1zm0 6c-3 0 1 4 0 0zM8 45h1zm62 3c0 1-1 4 0 0zm-8 2c2 2-2 1 0 0zm-38 0c-3 1-1 3 1 2 4 0-1-1-1-2zm-5 1c-2 2 3 3 1 1l-1-1zm50 1s-1 2 0 0zm-53 3c-2 0 2 1 0 0zm52 0s-2 2 0 0zm-1 2zm-54 0zm44 9v1zm-14 6h-3z" paint-order="stroke markers fill"/>
</svg>