<svg viewBox="0 0 217 566" xmlns="http://www.w3.org/2000/svg">
  <path fill="#181d23" d="M39 279l1-2 2-31 5-21 3-31 4 5-9 36 2 24-5 19-2 11zm14 257c1-7 2-12 8-20l2-5 1-25 6-28 5-25c1-6 0-12 2-17 2-7 6-14 6-22l1-4 7-15 7-14c3-4 9-6 13-3 6 4 12 8 13 16 2 14 8 28 12 41l7 32 5 27 6 35c1 9 1 18 6 25l1 8c2 9-6 24 2 24h52l-5-12-19-15c-5-5-6-12-5-19v-22c-1-8 0-16-4-23v-4-15l-3-40-1-27-1-3-4-13v-13l-2-33-4-48-1-21-5-17-1-16 1-4 3-31v17l2 17 8 31 5 43 1 12c1 6 13 6 16 4 5-4 7-7 7-17v-18l-4-27v-48l-3-34-5-25-7-21-21-33-13-9-4-9-75 22-35 15-18 74 2 91h-5l10 32c-2 8 4 10 13 11l-1 17v20l-2 43c-1 10 2 20-3 29l-1 4v32l-5 57c-1 8 0 14-6 22 0 0-14 22-17 24h55s-5-23-5-30"/>
  <path fill="#d9e3e8" d="M22 248l-2 34-5-7-3-27v-38l-1-7 1-21 4-24v-3l8-27 7-18c1-4 3-6 5-8l7-6 4-1c-6 10 12 5 15 10 8 19 2 40-7 63-15 38-28 47-33 80zM93 3c1 3 7 0 10-1-7 30-13 54-8 83-15 13-20 6-40 4l4-3 4-21 4-15 7-25L85 7l8-4"/>
  <path fill="#7c7521" d="M162 114c-2-11-4-9-9-20l9-4 1 1 12 15 7 13 3 7-4 3-5 12 5-2 8 5v14l-3 14-4-4-6 9 18-6v18h2l-4 5 5 3-4 4 6 6h-11l4 7-5 3 3 4-3 3h2l3 12-5 12 9-2 3 26-4 11 3 16-18-6-3-40-2-5-3-10-4-21-1-11v-20l4-38-5-14-13 42-12 8-10 8 1 2 10-9 12-1v8l-2-2 1 3-4 11-9 3-11 5-3 21 20-11 5-3-1 5-5 10v8l-1 10 8 9-7 1-1-2 2 2-7 12-14 2-22-1-4-1H70l-8-89c9-9 41-42 39-79 13-4 31-8 48-10M30 288l-1-2 3-1-9-4 1-25c3-54 13-81 15-115l8 4 2 12 2 10v24l-3-1-1 4 1 14-10 14 7 3-6 15-1 3 1 33-9 12M141 86l-20-1c-7-6-10-7-14-14l24-55 3 1 3 4 9 52-5 13"/>
  <path fill="#7c7521" d="M102 88l19-1 21 6 2 5-23-2-19-4m22-84l8 4-1 4-8 3m35 89l4 11-2 1-2-12m-17-22l5 5zM79 235l-1 5-2-1 3-4m11-76l-3-1 1-1 2 2m28-83l-1 2-1-1 2-1M86 272l-1-1v-1l1 1v1m72-164l-4-2 4 2M90 159l1 3-1-3m-8 80h-1m46-103M135 131l-1-1 1 1m-35 87v-1 1"/>
  <path fill="#d0cc3e" d="M103 89v2l19 4 20 2-2-4-18-5-10 1zm-4 185l-6 1-49 2 4-19-1-11-1-11 6-27 3-10-4-8v-24l-2-10 5 3v-5l-2-14-1-15 3-11-5-7-4-7 2-6 8-6 30-5 7-1-4-37 3-18 2-6 7-19-6 1-1-1 2-3h15l6 2 8 4v12l7-2-2 17-1 3-6 12-3 7-1 3-5 9-1 3-2 1c8 8 5 4 10 7l2 6 2-1 17 3 5 5 7 3 12 11 4 9-7 22-10 9v-12l-5-20 6-7-5-7-2 37-4-4v-8l-7 7 1 6-1 1-3-3-5 1-4 6-11 12 1-13-4-20-6-13 2 16 2 16 1 15v15l-11-8h-6l5 15 11 2-3 3 3 10-1 5-7 4-24-15 14 13 3 5 9 8 1 6h-2v-1 1l-6 8-15 9 6 5-7 5c17 6 12 23 14 27l3-4 4 6"/>
  <path fill="#d0cc3e" d="M90 264v1l-1-1m-69 18l-2-34 2-21-1-11-3-6 7-2 4-25-6-11 12-2v-26l2-8 2-8-1-9 10 26-5-2 3 15v12l-4 32-8 5 9 8-15 20 11 4-6 4 2 14-3 23 2 5-3 1-9-4M131 16l1-4 2 5-3-1m-7 67"/>
</svg>