<svg viewBox="0 0 2560 1440" xmlns="http://www.w3.org/2000/svg">
  <path fill="#6a6e6f" d="M2561 364l-5-364 5 364"/>
  <path fill="#585b5c" d="M0 1435l310 4zM2243 1439h309-309M1925 1439h284-284M544 1439h226zM824 1439h218z"/>
  <path fill="#6a6e6f" d="M2561 1431v-205 205"/>
  <path fill="#585b5c" d="M351 1439h151z"/>
  <path fill="#8eb9d4" d="M0 481l11 12z"/>
  <path fill="#b8bab6" d="M531 0l-5 8-7-8h12"/>
  <path fill="#679acb" d="M0 485l11 8-11 5z"/>
  <path fill="#7796b3" d="M782 1439l8-7 1 7h-9"/>
  <path fill="#828685" d="M1556 0h-8z"/>
  <path fill="#679acb" d="M1901 143l9 15-10 9-10-9 11-15"/>
  <path fill="#585b5c" d="M655 653l-15 9-7-10 11-9 11 10"/>
  <path fill="#a0a3a0" d="M1381 1219l-19 5-2-4 13-10 8 9"/>
  <path fill="#7796b3" d="M85 913l-8-9 6-9 9 8-7 10M692 540l-9-8 5-8 4 16"/>
  <path fill="#90b0c1" d="M1068 292l-11 12 5-18 6 6M828 1404l-9 6-6-6 6-6 9 6M264 172l10-16 4 4-11 18-3-6"/>
  <path fill="#679acb" d="M1897 455l-8-15 7-5 1 20"/>
  <path fill="#90b0c1" d="M777 771l-6-9 6-6 6 6-6 9"/>
  <path fill="#7796b3" d="M506 481l10-13 6 9-12 8-4-4"/>
  <path fill="#c0c3c0" d="M907 962l1-15z"/>
  <path fill="#8eb9d4" d="M1602 1291l-7 3-5-7 12 4"/>
  <path fill="#c0c3c0" d="M466 1407l-7-8 5-7 7 6-5 9"/>
  <path fill="#badde4" d="M892 709l3-19 7 7-10 12"/>
  <path fill="#ced2cf" d="M828 925l1 21z"/>
  <path fill="#acaeab" d="M2044 220l-6 6-7-4 6-10 7 8"/>
  <path fill="#c0c3c0" d="M922 764l-9 5-5-6 6-6 8 7M877 921l5 8-7 5-4-4 6-9"/>
  <path fill="#7796b3" d="M1701 1050l3 8-5 4-4-5 6-7"/>
  <path fill="#eff3f0" d="M1990 298l-9 7 4-15 5 8"/>
  <path fill="#b8bab6" d="M2433 990l-7 4-4-6 6-4 5 6"/>
  <path fill="#dadcd9" d="M456 336l2 11-9-11h7"/>
  <path fill="#c0c3c0" d="M2431 918l8-6 4 4-4 8-8-6"/>
  <path fill="#dae777" d="M1610 1422l-5-7 5-4v11"/>
  <path fill="#ced2cf" d="M564 614h-15l7-6 8 6"/>
  <path fill="#dae777" d="M668 461l-4-4 4-5 4 5-4 4"/>
  <path fill="#8eb9d4" d="M59 320l-1-15z"/>
  <path fill="#679acb" d="M717 77l-14-1 5-5 9 6"/>
  <path fill="#eff3f0" d="M815 131l-11-2 4-4 7 6"/>
  <path fill="#607080" d="M661 782l8 11-15-7 7-4"/>
  <path fill="#25425e" d="M193 112l-6 3-4-3 5-5 5 5"/>
  <path fill="#90b0c1" d="M550 32l-8 6-5-6h13"/>
  <path fill="#c0c3c0" d="M259 964l1 13-6-5 5-8"/>
  <path fill="#b8bab6" d="M793 1375l-4 4-6-3 10-1"/>
  <path fill="#eff3f0" d="M513 399l2 15z"/>
  <path fill="#ced2cf" d="M681 1351l5 9-6 4 1-13"/>
  <path fill="#b8bab6" d="M1820 1054l-8 2-2-6 5-3 5 7"/>
  <path fill="#acaeab" d="M1331 1210l3 5-6 7 3-12"/>
  <path fill="#90b0c1" d="M1053 399l5 11-4 4-1-15M1395 1210l-5 3-4-5 9 2"/>
  <path fill="#c0c3c0" d="M1395 1152l-4 3-4-5 4-2 4 4"/>
  <path fill="#7796b3" d="M2269 466h-11l4-4 7 4"/>
  <path fill="#ced2cf" d="M806 889l14 4z"/>
  <path fill="#dadcd9" d="M1451 225l-8 5-3-4 4-6 7 5"/>
  <path fill="#7796b3" d="M1905 959l-4 4-5-4h9"/>
  <path fill="#8d908f" d="M2017 511h-19z"/>
  <path fill="#90b0c1" d="M540 892l-2-13 6 4-4 9"/>
  <path fill="#7796b3" d="M666 744l4 4-3 5-1-9"/>
  <path fill="#8eb9d4" d="M2353 1380l-7 5-3-4 5-5 5 4"/>
  <path fill="#c0c3c0" d="M2224 155l4-4 4 4-3 4-5-4"/>
  <path fill="#679acb" d="M492 770l10 7-8 5-2-12"/>
  <path fill="#ced2cf" d="M1277 498l-7 1-2-6 9 5"/>
  <path fill="#3c4855" d="M598 1195l-4 4-5-4h9"/>
  <path fill="#90b0c1" d="M698 827l-15 3z"/>
  <path fill="#3c4855" d="M896 486l-11-4 3-4 8 8"/>
  <path fill="#607080" d="M1436 1053l-5 3-4-4 5-3 4 4"/>
  <path fill="#a0a3a0" d="M556 667l4 5-6 4 2-9"/>
  <path fill="#8eb9d4" d="M1629 27l-4 5-5-5h9"/>
  <path fill="#acaeab" d="M896 486l8 6-2 3-6-9"/>
  <path fill="#607080" d="M1970 1097l-3-5 4-3 3 4-4 4"/>
  <path fill="#ced2cf" d="M1512 314l-5 2 2-9 3 7"/>
  <path fill="#6a6e6f" d="M697 1362l-5-7 4-3 5 5-4 5"/>
  <path fill="#dadcd9" d="M794 322l-5 4-3-6 8 2"/>
  <path fill="#c0c3c0" d="M372 1216l4 4-3 4-4-3 3-5"/>
  <path fill="#3c4855" d="M1783 1025l-5 2-2-3 4-4 3 5"/>
  <path fill="#c0c3c0" d="M1543 851l-3-6 4-4 3 3-4 7"/>
  <path fill="#ced2cf" d="M322 1337l-5 5-4-5h9"/>
  <path fill="#36393b" d="M672 324l-9-3z"/>
  <path fill="#3c4855" d="M2030 711l3 6-4 3 1-9"/>
  <path fill="#b8bab6" d="M1904 1427l-4-4 4-6 4 3-4 7"/>
  <path fill="#3c4855" d="M353 432l3-7z"/>
  <path fill="#a0a3a0" d="M1799 886l-8 4-4-5 12 1"/>
  <path fill="#b8bab6" d="M1060 1264l-8 3 2-5 6 2"/>
  <path fill="#c0c3c0" d="M2436 1263l3 4-4 4-3-4 4-4"/>
  <path fill="#737777" d="M436 18l-1 11-3-2 4-9"/>
  <path fill="#36393b" d="M350 1296l-2 3-3-1 1-3 4 1"/>
  <path fill="#828685" d="M550 1330l4 4-1 3-4-1 1-6"/>
  <path fill="#4d5252" d="M1727 42l-3 2-3-4 4-1 2 3"/>
  <path fill="#6a6e6f" d="M976 47l-5 2-2-2 3-4 4 4"/>
  <path fill="#737777" d="M2433 1348l2-4 3 7-5-3"/>
  <path fill="#dadcd9" d="M579 63l-5-3 4-6 1 9"/>
  <path fill="#ced2cf" d="M938 62l4 3-2 5-2-8"/>
  <path fill="#dae777" d="M1290 67l4 3-2 4-2-7"/>
  <path fill="#eff3f0" d="M1941 1358l-3-4h7l-4 4"/>
  <path fill="#36393b" d="M253 1380l-1 3-3-2 1-3 3 2"/>
  <path fill="#6a6e6f" d="M2133 1380l-2 4-4-3 1-3 5 2"/>
  <path fill="#828685" d="M2067 105l-2-6 6 5-4 1"/>
  <path fill="#4d5252" d="M794 109l-3 2-3-4 4-1 2 3"/>
  <path fill="#dae777" d="M2067 105l4-1 1 9-5-8"/>
  <path fill="#a0a3a0" d="M2092 114l-2 2-2-4 2-2 2 4"/>
  <path fill="#dadcd9" d="M678 1384l-3 5-5-2 3-6 5 3"/>
  <path fill="#737777" d="M1984 1393l-5 3-3-4 8 1"/>
  <path fill="#6a6e6f" d="M2512 136l-1-4 3-1 1 3-3 2"/>
  <path fill="#b8bab6" d="M386 138l-6 3-3-4 9 1"/>
  <path fill="#90b0c1" d="M1646 1399l-12-2 5-3 7 5"/>
  <path fill="#dadcd9" d="M2414 1396l3 6-4 3 1-9"/>
  <path fill="#606364" d="M2335 1420l-5 2-2-3 4-3 3 4"/>
  <path fill="#607080" d="M2227 1419l-1 11-4-1 5-10"/>
  <path fill="#ced2cf" d="M264 172l3 6-5 1 2-7"/>
  <path fill="#eff3f0" d="M379 174l-5 5-5-3 10-2"/>
  <path fill="#acaeab" d="M1652 698l-3-5h7l-4 5"/>
  <path fill="#3c4855" d="M778 216l-2-3 4-2 1 3-3 2"/>
  <path fill="#badde4" d="M805 222l-4 3 1-6 3 3"/>
  <path fill="#4d5252" d="M1209 222h-7l4-4 3 4"/>
  <path fill="#828685" d="M895 241l-5 1-1-3 4-3 2 5"/>
  <path fill="#acaeab" d="M2431 253l-3-5h7l-4 5"/>
  <path fill="#c0c3c0" d="M2138 252l-8 6-4-5 12-1"/>
  <path fill="#585b5c" d="M2196 302l-5 1-2-3 5-2 2 4"/>
  <path fill="#434545" d="M1752 307l4 1-2 3-3-1 1-3"/>
  <path fill="#acaeab" d="M542 321l-1 9z"/>
  <path fill="#434545" d="M367 353l3 2-1 3-4-2 2-3"/>
  <path fill="#607080" d="M1708 372l2-3 5 3-2 3-5-3"/>
  <path fill="#dadcd9" d="M1616 375l-2 5-4-4 1-3 5 2"/>
  <path fill="#606364" d="M777 388l-7 6 1-8 6 2"/>
  <path fill="#828685" d="M2306 389v8l-3-3 3-5"/>
  <path fill="#c0c3c0" d="M836 410v-8l4 4-4 4"/>
  <path fill="#dadcd9" d="M709 410l-4 3 1-6 3 3"/>
  <path fill="#36393b" d="M1257 415l1-3 4 1-2 4-3-2"/>
  <path fill="#dadcd9" d="M2419 419l-4 3-4-5 5-2 3 4"/>
  <path fill="#4d5252" d="M563 426l2-2 3 4-4 1-1-3"/>
  <path fill="#585b5c" d="M540 434l-3-1 1-3 4 1-2 3"/>
  <path fill="#90b0c1" d="M828 443l-5 4-1-7 6 3"/>
  <path fill="#a0a3a0" d="M597 459l5 3h-14l9-3"/>
  <path fill="#dadcd9" d="M2290 469l-5 3-4-6 9 3"/>
  <path fill="#acaeab" d="M506 481l3 13z"/>
  <path fill="#a0a3a0" d="M945 504l-4-5 4-5 4 3-4 7"/>
  <path fill="#606364" d="M1689 513l-2 4-4-2 1-4 5 2"/>
  <path fill="#585b5c" d="M1838 536l-2 3-1-5 3 2"/>
  <path fill="#36393b" d="M838 551l-3-2 1-3 3 1-1 4"/>
  <path fill="#434545" d="M2409 554l3 1-1 4-3-2 1-3"/>
  <path fill="#c0c3c0" d="M327 565l-3 3-3-5 4-5 2 7"/>
  <path fill="#737777" d="M1837 560l-2 4-4-2 1-3 5 1"/>
  <path fill="#36393b" d="M1371 591l-4 1-1-3 3-1 2 3"/>
  <path fill="#c0c3c0" d="M1540 601l5-3 3 4-4 3-4-4"/>
  <path fill="#acaeab" d="M1250 619l-2-3 4-1 2 3-4 1"/>
  <path fill="#8d999a" d="M227 625l-6 2-2-4 8 2M1901 633l-1-8 4 2-3 6"/>
  <path fill="#b8bab6" d="M549 635l-4 5-4-3 3-4 5 2"/>
  <path fill="#36393b" d="M77 672l-1 3-3-1 1-3 3 1"/>
  <path fill="#b8bab6" d="M2440 679h-8l5-5 3 5"/>
  <path fill="#badde4" d="M246 689l-4-8 6-4-2 12"/>
  <path fill="#434545" d="M516 681l3-2 2 4-3 1-2-3"/>
  <path fill="#4d5252" d="M1576 687l-2 2-2-4 3-1 1 3"/>
  <path fill="#acaeab" d="M295 725v7z"/>
  <path fill="#36393b" d="M919 734l3 2-1 3-3-2 1-3"/>
  <path fill="#434545" d="M1179 751l3 1-1 4-4-2 2-3"/>
  <path fill="#acaeab" d="M1712 759l-6 2-3-3 5-3 4 4"/>
  <path fill="#c0c3c0" d="M2008 545l-3-5 5-4 2 5-4 4"/>
  <path fill="#3c4855" d="M1858 776l-3-1 1-4 4 2-2 3"/>
  <path fill="#606364" d="M234 783l-3 3-3-4 3-1 3 2"/>
  <path fill="#737777" d="M1271 787l-11-1 2-3 9 4"/>
  <path fill="#6a6e6f" d="M1753 784l3 4-2 2-4-3 3-3"/>
  <path fill="#434545" d="M615 793l-2-3 2-2 2 1-2 4"/>
  <path fill="#c0c3c0" d="M1239 823l4 5-5 4-2-4 3-5"/>
  <path fill="#a0a3a0" d="M2361 831l-3 5-2-7 5 2"/>
  <path fill="#dae777" d="M1679 842l-5-4 4-5 1 9"/>
  <path fill="#585b5c" d="M1492 854l-3 2-2-5h4l1 3"/>
  <path fill="#dadcd9" d="M2340 867l-5-4 4-5 4 3-3 6"/>
  <path fill="#eff3f0" d="M606 730l-3-5 5-2 2 2-4 5"/>
  <path fill="#434545" d="M909 888l2 3-4 2-1-3 3-2"/>
  <path fill="#fff" d="M1821 890l-4 5-5-4 3-4 6 3"/>
  <path fill="#dadcd9" d="M1838 904l-10 1 5-5 5 4"/>
  <path fill="#c0c3c0" d="M616 915l-4 5-1-7 5 2"/>
  <path fill="#8d908f" d="M705 917l2 3-4 3 2-6"/>
  <path fill="#828685" d="M1806 933l4 2-3 4-3-2 2-4"/>
  <path fill="#36393b" d="M2117 935l2 3-1 1-3-1 2-3"/>
  <path fill="#7796b3" d="M1707 943l-8 1 2-5 6 4"/>
  <path fill="#8d908f" d="M104 947l-2-3 4-2 1 3-3 2"/>
  <path fill="#36393b" d="M1554 951l-3 1v-4h2l1 3"/>
  <path fill="#737777" d="M1714 961l-3 1-3-4 6 3"/>
  <path fill="#4d5252" d="M2498 976l2 2-3 4-2-4 3-2"/>
  <path fill="#90b0c1" d="M639 989l-3-5 4-3-1 8M1686 983l-6 5-4-3 4-4 6 2"/>
  <path fill="#607080" d="M895 1002l-3 1-3-3 4-1 2 3"/>
  <path fill="#4d5252" d="M1150 1012l-2-3 4-2 2 3-4 2"/>
  <path fill="#c0c3c0" d="M955 1010l-1 11-4-3 5-8"/>
  <path fill="#4d5252" d="M1740 720l-3 3-2-4 3-2 2 3"/>
  <path fill="#badde4" d="M1937 1029l4 5-6 4 2-9"/>
  <path fill="#8eb9d4" d="M267 1050l-5 3-3-4 4-3 4 4"/>
  <path fill="#b8bab6" d="M983 1052h-8l3-4 5 4"/>
  <path fill="#8d908f" d="M1515 1049l3-3 4 3-1 3-6-3"/>
  <path fill="#c0c3c0" d="M1444 1056l-2 11z"/>
  <path fill="#badde4" d="M602 1082l4 6-3 4-5-5 4-5"/>
  <path fill="#90b0c1" d="M788 1092l-5 2-2-3 3-3 4 4"/>
  <path fill="#a0a3a0" d="M1123 1112l-5 2 1-7 4 5"/>
  <path fill="#8eb9d4" d="M2331 1108l-3 5-6-4 4-3 5 2"/>
  <path fill="#dae777" d="M2514 1143l-8 4-4-6 12 2"/>
  <path fill="#606364" d="M2404 1171l-2-3 4-2 1 3-3 2"/>
  <path fill="#3c4855" d="M1283 1212l-2 3-3-1 1-3 4 1"/>
  <path fill="#606364" d="M1061 1214l4 3-3 4-3-2 2-5"/>
  <path fill="#eff3f0" d="M1750 1213l-1 9-4-5 5-4"/>
  <path fill="#dadcd9" d="M2256 1212l3 5-6 4-2-5 5-4"/>
  <path fill="#b8bab6" d="M1384 1028h-11l1-3 10 3"/>
  <path fill="#6a6e6f" d="M666 1258l-4 4-3-1 1-5 6 2"/>
  <path fill="#828685" d="M223 510l-3 1-2-3 3-1 2 3M1885 1192l-8-2z"/>
  <path fill="#3c4855" d="M673 495l2 2h-4l2-2"/>
  <path fill="#acaeab" d="M1760 1044l2-2 3 4-5-2"/>
  <path fill="#434545" d="M692 443l-3-2 4-1-1 3"/>
  <path fill="#7796b3" d="M477 83l-2 3-2-3 3-3 1 3"/>
  <path fill="#c0c3c0" d="M1324 80l2 3-3 3 1-6"/>
  <path fill="#434545" d="M313 93l-1 3-1-4 2 1"/>
  <path fill="#90b0c1" d="M2386 120l-3 3-4-4 7 1"/>
  <path fill="#acaeab" d="M623 1195l-2 3-3-5h4l1 2"/>
  <path fill="#828685" d="M1020 862l2 2-2 4-3-4 3-2"/>
  <path fill="#b8bab6" d="M796 153l-3 4-3-4 2-2 4 2"/>
  <path fill="#8d999a" d="M1228 1130l2 3-4 2-1-3 3-2"/>
  <path fill="#badde4" d="M964 481l-2-6 4-2-2 8"/>
  <path fill="#90b0c1" d="M448 173l-3 2-2-3 3-2 2 3"/>
  <path fill="#b8bab6" d="M2023 1237l-5 3-3-2 3-4 5 3"/>
  <path fill="#dadcd9" d="M2147 523l-4-2 4-3 3 2-3 3"/>
  <path fill="#607080" d="M841 901l-3 2-1-4 3-1 1 3"/>
  <path fill="#ced2cf" d="M217 690l-2 7z"/>
  <path fill="#eff3f0" d="M522 477l-6-9z"/>
  <path fill="#c0c3c0" d="M1606 459l-5 3-2-2 2-4 5 3"/>
  <path fill="#90b0c1" d="M473 786l-2 2-3-4 4-1 1 3"/>
  <path fill="#607080" d="M764 988l-2-2 4-2 1 3-3 1"/>
  <path fill="#b8bab6" d="M1491 616l-2 3-4-3 2-3 4 3"/>
  <path fill="#c0c3c0" d="M360 1170l-5 1-1-2 4-3 2 4"/>
  <path fill="#badde4" d="M128 1005l-5 3 1-7 4 4"/>
  <path fill="#8d999a" d="M1512 451l-3 1-2-4 5 3"/>
  <path fill="#607080" d="M322 1010l-1 4-3-2 1-3 3 1M622 1092l-3-2h6l-3 2"/>
  <path fill="#c0c3c0" d="M1577 795l-2 2-2-3 3-3 1 4"/>
  <path fill="#828685" d="M64 798l-4 4 2-7 2 3"/>
  <path fill="#a0a3a0" d="M161 1030l-2-3 4-1 1 2-3 2"/>
  <path fill="#8d999a" d="M1193 1031l-4 2-2-2 4-3 2 3"/>
  <path fill="#dadcd9" d="M1094 858l2 3-3 4-4-2 5-5"/>
  <path fill="#ced2cf" d="M1920 406l-2 2-2-3 3-3 1 4"/>
  <path fill="#7796b3" d="M2277 1211l-1-3 4-2-3 5"/>
  <path fill="#90b0c1" d="M702 910l-2 2-4-3 6 1"/>
  <path fill="#3c4855" d="M94 404l3 2-1 3-3-1 1-4"/>
  <path fill="#b8bab6" d="M969 400l2 3-4 2 2-5"/>
  <path fill="#ced2cf" d="M528 1235l-1 3-3-6 4 3"/>
  <path fill="#b8bab6" d="M987 923l-2 2-3-4 3-1 2 3"/>
  <path fill="#7796b3" d="M1017 553l-2 3-2-4 2-1 2 2"/>
  <path fill="#b8bab6" d="M1829 924l-3 3-3-3 4-3 2 3"/>
  <path fill="#828685" d="M1443 934l-2 2-2-4 3-1 1 3"/>
  <path fill="#c0c3c0" d="M354 815l-5 1-1-3 4-1 2 3"/>
  <path fill="#ced2cf" d="M76 1341l-2 4-4-2 1-3 5 1"/>
  <path fill="#eff3f0" d="M1751 356l3 3-2 4-1-7"/>
  <path fill="#c0c3c0" d="M1273 659l4 2-2 4-3-1 1-5"/>
  <path fill="#b8bab6" d="M557 310l-4 1-1-3 4-2 1 4"/>
  <path fill="#dadcd9" d="M1430 301l4 2-7 2 3-4"/>
  <path fill="#c0c3c0" d="M2265 832l-2-3 4-2 1 4-3 1"/>
  <path fill="#acaeab" d="M776 954l-6 2-2-3 3-3 5 4"/>
  <path fill="#a0a3a0" d="M2207 1396l-5 4-1-4 4-3 2 3"/>
  <path fill="#eff3f0" d="M935 1402l-4 3-2-3 3-4 3 4"/>
  <path fill="#ced2cf" d="M578 958l-3 2-2-3 4-2 1 3"/>
  <path fill="#7796b3" d="M756 262l-3 2-3-4 6 2"/>
  <path fill="#3c4855" d="M2415 716l-1 3-3-2 1-3 3 2"/>
  <path fill="#c0c3c0" d="M1347 217l3-2 2 2-4 4-1-4"/>
  <path fill="#eff3f0" d="M2468 708l-3-4 7 2-4 2"/>
  <path fill="#607080" d="M268 208l-2 3-1-6 3 3"/>
  <path fill="#3c4855" d="M486 1202h1v2l-3-1 2-1"/>
  <path fill="#acaeab" d="M2551 1203l1 4-2 2 1-6"/>
  <path fill="#6a6e6f" d="M489 8l-3 1 2-4 1 3"/>
  <path fill="#8d908f" d="M1171 23l-1 4-1-5 2 1"/>
  <path fill="#3c4855" d="M225 1212l1-2 1 1v1h-2"/>
  <path fill="#737777" d="M2057 28l3-2 2 2-1 1-4-1"/>
  <path fill="#a0a3a0" d="M1065 49l-1-6 2 1-1 5"/>
  <path fill="#8d999a" d="M505 135l-2 3-3-2 5-1"/>
  <path fill="#434545" d="M471 402l2-9 4 6-6 3"/>
  <path fill="#585b5c" d="M2405 801l-3 1-1-1 3-1 1 1"/>
  <path fill="#8d999a" d="M2215 550l-3 2-2-2h5"/>
  <path fill="#acaeab" d="M1344 807l-3-1 3-3 3 2-3 2"/>
  <path fill="#8d908f" d="M88 1226l-2 3v-6l2 3"/>
  <path fill="#606364" d="M1664 392l1 3-2 2-1-3 2-2"/>
  <path fill="#607080" d="M61 165l-2-3 2-2v5"/>
  <path fill="#434545" d="M811 164l-1 1h-1l1-3 1 2"/>
  <path fill="#c0c3c0" d="M1940 966l3 2-3 3-3-2 3-3"/>
  <path fill="#737777" d="M474 980l2 2h-5l3-2"/>
  <path fill="#b8bab6" d="M962 837l-1 4-3-2 1-4 3 2M1665 1277l-1 3-3-3 2-3 2 3"/>
  <path fill="#607080" d="M2333 1284l-2-2 1-3 1 5"/>
  <path fill="#8d999a" d="M1318 547l-3 3v-6l3 3"/>
  <path fill="#585b5c" d="M1476 372l-2-2 1-2 2 2-1 2"/>
  <path fill="#737777" d="M1164 662l2 2h-4l2-2"/>
  <path fill="#606364" d="M2376 510l-2 3-1-1 1-3 2 1"/>
  <path fill="#828685" d="M874 662l-2 2 1-5 1 3"/>
  <path fill="#acaeab" d="M26 740l-3-1 3-3 3 2-3 2"/>
  <path fill="#36393b" d="M1269 1361v-2h1l-1 2"/>
  <path fill="#606364" d="M1652 1011l-2 3 1-5 1 2"/>
  <path fill="#6a6e6f" d="M1806 851l-3 1v-2l3 1"/>
  <path fill="#b8bab6" d="M661 782l-7 4z"/>
  <path fill="#8d908f" d="M2397 540l-2 3v-6l2 3"/>
  <path fill="#434545" d="M684 198l-1-1 2-2-1 3"/>
  <path fill="#737777" d="M341 302l2 2v2l-3-1 1-3"/>
  <path fill="#4d5252" d="M2085 719l-2-1 2-2 1 2-1 1"/>
  <path fill="#6a6e6f" d="M1018 272l2 3h-5l3-3"/>
  <path fill="#828685" d="M1834 418l2 3h-3l1-3"/>
  <path fill="#36393b" d="M2495 863v-2h1l-1 2"/>
  <path fill="#606364" d="M1082 1048l3-2 2 3-3 1-2-2"/>
  <path fill="#b8bab6" d="M1649 631l-2 3-3-3 3-3 2 3"/>
  <path fill="#606364" d="M871 1084l1 2h-5l4-2"/>
  <path fill="#a0a3a0" d="M2178 831l-4 2-1-4 5 2"/>
  <path fill="#828685" d="M1597 531l-3-2h7l-4 2"/>
  <path fill="#434545" d="M547 961v1h-2l2-1"/>
  <path fill="#a0a3a0" d="M322 1127l2-4 1 7-3-3"/>
  <path fill="#b8bab6" d="M1739 259l-3-1 1-4 3 2-1 3"/>
  <path fill="#737777" d="M746 1144l-2 2-2-2h4"/>
  <path fill="#ced2cf" d="M1228 804l-4-2 3-3 3 2-2 3"/>
  <path fill="#4d5252" d="M827 960l1-1 1 2-2-1"/>
  <path fill="#585b5c" d="M1868 1177l1 1h-4l3-1"/>
  <path fill="#6a6e6f" d="M2248 952l-2 2-2-2h4"/>
  <path fill="#606364" d="M764 816l1 2-2 1-1-1 2-2"/>
  <path fill="#4d5252" d="M526 128l-1 1-1-1 1-1 1 1M1873 1245l-1 1v-2l1 1"/>
  <path fill="#679acb" d="M502 343l-8 6-10-8 18 2"/>
  <path fill="#8eb9d4" d="M2332 543l-8-7-5 5 5 6zm-7 22l-18-22 15-16 18 14-15 24"/>
  <path fill="#90b0c1" d="M499 210l12 14-10 14-11-10 9-18M210 280l-2-15 7 6-5 9"/>
  <path fill="#8eb9d4" d="M834 780l7 11-6 8-7-7 6-12"/>
  <path fill="#679acb" d="M426 371l-3 8 5 4zm-6-13l21 19-17 16-17-23 13-12"/>
  <path fill="#eff3f0" d="M2332 543l-8 4-5-6 5-5 8 7"/>
  <path fill="#badde4" d="M426 371l2 12-5-4 3-8"/>
  <path fill="#6a6e6f" d="M0 1075l4 364z"/>
  <path fill="#585b5c" d="M2561 4l-310-4 310 4M318 0H8zM636 0H351zM2017 0h-226zM1736 0h-217z"/>
  <path fill="#6a6e6f" d="M0 8v205V8"/>
  <path fill="#585b5c" d="M2209 0h-150 150"/>
  <path fill="#8eb9d4" d="M2561 958l-12-11 12 11"/>
  <path fill="#b8bab6" d="M2029 1439l6-8 7 8h-13"/>
  <path fill="#679acb" d="M2561 954l-12-7 12-6v13"/>
  <path fill="#7796b3" d="M1778 0l-7 7-1-7h8"/>
  <path fill="#828685" d="M1004 1439h9z"/>
  <path fill="#679acb" d="M660 1296l-9-15 10-9 10 10-11 14"/>
  <path fill="#585b5c" d="M1905 786l15-8 8 9-11 10-12-11"/>
  <path fill="#a0a3a0" d="M1180 221l19-6 2 4-14 11-7-9"/>
  <path fill="#7796b3" d="M2476 526l8 9-6 9-9-8 7-10M1869 900l8 7-4 8-4-15"/>
  <path fill="#90b0c1" d="M575 410l-7-9 5-6 7 5-5 10M1493 1148l11-13-6 19-5-6M1733 35l9-6 5 6-6 6-8-6M2297 1268l-10 15-5-4 11-18 4 7"/>
  <path fill="#679acb" d="M664 985l8 14-7 5-1-19"/>
  <path fill="#90b0c1" d="M1783 668l7 9-6 6-6-6 5-9"/>
  <path fill="#7796b3" d="M2054 958l-9 13-7-9 12-7 4 3"/>
  <path fill="#c0c3c0" d="M1654 477l-2 15z"/>
  <path fill="#8eb9d4" d="M958 149l8-4 4 7-12-3"/>
  <path fill="#c0c3c0" d="M2095 32l6 8-5 7-7-5 6-10"/>
  <path fill="#badde4" d="M1669 730l-4 19-6-7 10-12"/>
  <path fill="#ced2cf" d="M1733 515l-1-21z"/>
  <path fill="#acaeab" d="M517 1220l6-7 7 5-6 9-7-7"/>
  <path fill="#c0c3c0" d="M1639 675l9-5 5 7-6 5-8-7M1684 519l-5-9 6-5 5 5-6 9"/>
  <path fill="#7796b3" d="M860 389l-4-8 6-4 4 6-6 6"/>
  <path fill="#eff3f0" d="M571 1142l9-8-5 16-4-8"/>
  <path fill="#b8bab6" d="M127 449l8-4 3 6-5 5-6-7"/>
  <path fill="#dadcd9" d="M2105 1103l-2-11 9 11h-7"/>
  <path fill="#c0c3c0" d="M129 521l-7 6-5-4 5-8 7 6"/>
  <path fill="#dae777" d="M950 17l6 7-5 5-1-12"/>
  <path fill="#ced2cf" d="M1997 825h15l-7 7-8-7"/>
  <path fill="#dae777" d="M1893 978l4 4-4 5-4-5 4-4"/>
  <path fill="#8eb9d4" d="M2502 1119l1 15-1-15"/>
  <path fill="#679acb" d="M1844 1363h13l-5 5-8-5"/>
  <path fill="#eff3f0" d="M1745 1309l12 1-5 5-7-6"/>
  <path fill="#607080" d="M1900 657l-8-10 14 7-6 3"/>
  <path fill="#25425e" d="M2367 1328l7-4 3 4-4 4-6-4"/>
  <path fill="#90b0c1" d="M2010 1408l8-6 6 5-14 1"/>
  <path fill="#c0c3c0" d="M2302 476l-2-14 6 6-4 8"/>
  <path fill="#b8bab6" d="M1767 64l4-4 6 4h-10"/>
  <path fill="#eff3f0" d="M2047 1041l-1-15z"/>
  <path fill="#ced2cf" d="M1880 88l-5-9 5-3v12"/>
  <path fill="#b8bab6" d="M740 385l8-1 3 5-6 3-5-7"/>
  <path fill="#acaeab" d="M1230 229l-4-5 7-7-3 12"/>
  <path fill="#90b0c1" d="M1508 1040l-5-11 4-3 1 14M1165 230l5-4 5 6-10-2"/>
  <path fill="#c0c3c0" d="M1165 287l5-3 4 5-5 3-4-5"/>
  <path fill="#7796b3" d="M292 974h11l-4 3-7-3"/>
  <path fill="#ced2cf" d="M1754 550l-14-3z"/>
  <path fill="#dadcd9" d="M1110 1214l8-4 3 3-4 6-7-5"/>
  <path fill="#7796b3" d="M656 480l4-4 5 4h-9"/>
  <path fill="#8d908f" d="M544 928h19z"/>
  <path fill="#90b0c1" d="M2020 547l2 13-5-4 3-9"/>
  <path fill="#7796b3" d="M1895 695l-4-4 2-5 2 9"/>
  <path fill="#8eb9d4" d="M207 59l7-4 4 3-5 6-6-5"/>
  <path fill="#c0c3c0" d="M337 1284l-4 5-5-5 4-4 5 4"/>
  <path fill="#679acb" d="M2069 669l-10-7 7-5 3 12"/>
  <path fill="#ced2cf" d="M1284 942l6-2 2 7-8-5"/>
  <path fill="#3c4855" d="M1962 244l5-4 5 5-10-1"/>
  <path fill="#90b0c1" d="M1863 612l15-2z"/>
  <path fill="#3c4855" d="M1664 954l11 3-2 4-8-8-1 1"/>
  <path fill="#607080" d="M1124 386l6-3 3 4-4 3-5-4"/>
  <path fill="#a0a3a0" d="M2005 772l-4-5 6-3-2 8"/>
  <path fill="#8eb9d4" d="M932 1412l3-5 6 5h-9"/>
  <path fill="#acaeab" d="M1665 953l-8-5 2-3 5 9 1-1"/>
  <path fill="#607080" d="M591 342l3 5-4 4-3-5 4-4"/>
  <path fill="#ced2cf" d="M1048 1125l6-2-2 9-4-7"/>
  <path fill="#6a6e6f" d="M1863 78l5 7-3 3-5-5 3-5"/>
  <path fill="#dadcd9" d="M1766 1117l5-4 4 6-9-2"/>
  <path fill="#c0c3c0" d="M2189 223l-5-4 3-3 5 3-3 4"/>
  <path fill="#3c4855" d="M778 415l5-2 2 3-5 3-2-4"/>
  <path fill="#c0c3c0" d="M1018 588l3 6-4 5-4-4 5-7"/>
  <path fill="#ced2cf" d="M2239 102l4-4 5 4h-9"/>
  <path fill="#36393b" d="M1888 1115l9 4z"/>
  <path fill="#3c4855" d="M531 728l-3-6 4-2-1 8"/>
  <path fill="#b8bab6" d="M656 12l5 4-4 7-4-3 3-8"/>
  <path fill="#3c4855" d="M2208 1007l-3 8 3-8"/>
  <path fill="#a0a3a0" d="M762 554l8-5 4 5h-12"/>
  <path fill="#b8bab6" d="M1500 175l9-3-2 5-7-2"/>
  <path fill="#c0c3c0" d="M125 177l-4-5 4-4 3 4-3 5"/>
  <path fill="#737777" d="M2125 1422l1-11 3 1-4 10"/>
  <path fill="#36393b" d="M2211 143l2-3 2 2-1 3-3-2"/>
  <path fill="#828685" d="M2010 110l-4-5 2-3 4 2-2 6"/>
  <path fill="#4d5252" d="M834 1398l3-3 2 4-3 1-2-2"/>
  <path fill="#6a6e6f" d="M1585 1392l5-2 2 3-3 3-4-4"/>
  <path fill="#737777" d="M128 91l-2 4-3-6 5 2"/>
  <path fill="#dadcd9" d="M1982 1376l5 4-4 5-1-9"/>
  <path fill="#ced2cf" d="M1622 1377l-3-2 1-5 2 7"/>
  <path fill="#dae777" d="M1270 1372l-3-2 2-5 1 7"/>
  <path fill="#eff3f0" d="M620 82l3 3h-7l4-3"/>
  <path fill="#36393b" d="M2307 60l2-3 3 1-2 3-3-1"/>
  <path fill="#6a6e6f" d="M427 60l3-4 4 3-2 3-5-2"/>
  <path fill="#828685" d="M494 1335l1 5-5-4 4-1"/>
  <path fill="#4d5252" d="M1767 1331l3-2 2 4-3 1-2-3"/>
  <path fill="#dae777" d="M494 1335l-4 1-2-9 6 8"/>
  <path fill="#a0a3a0" d="M469 1326l2-3 2 4-3 2-1-3"/>
  <path fill="#dadcd9" d="M1882 55l4-5 5 2-3 6-6-3"/>
  <path fill="#737777" d="M577 46l5-3 3 4-8-1"/>
  <path fill="#6a6e6f" d="M49 1304l1 3-4 2-1-4 4-1"/>
  <path fill="#b8bab6" d="M2175 1302l6-3 3 4-9-1"/>
  <path fill="#90b0c1" d="M915 40l12 2-5 4-7-6"/>
  <path fill="#dadcd9" d="M147 43l-3-5 4-4-1 9"/>
  <path fill="#606364" d="M226 20l5-2 1 3-4 3-2-4"/>
  <path fill="#607080" d="M334 21l1-12 3 1-4 11"/>
  <path fill="#ced2cf" d="M2297 1268l-4-7h6l-2 7"/>
  <path fill="#eff3f0" d="M2181 1265l5-5 6 4-11 1"/>
  <path fill="#acaeab" d="M909 741l3 5-7 1 4-6"/>
  <path fill="#3c4855" d="M1783 1224l2 2-4 2-1-3 3-1"/>
  <path fill="#badde4" d="M1756 1217l4-3-2 7-2-4"/>
  <path fill="#4d5252" d="M1352 1218l6-1-3 4-3-3"/>
  <path fill="#828685" d="M1665 1199l5-2 2 3-5 3-2-4"/>
  <path fill="#acaeab" d="M129 1187l4 4-7 1 3-5"/>
  <path fill="#c0c3c0" d="M423 1187l7-6 5 5-12 1"/>
  <path fill="#585b5c" d="M365 1138l5-1 1 3-5 1-1-3"/>
  <path fill="#434545" d="M808 1132l-3-1 1-3 3 1-1 3"/>
  <path fill="#acaeab" d="M2018 1119l1-10z"/>
  <path fill="#434545" d="M2194 1086l-4-1 2-3 3 1-1 3"/>
  <path fill="#607080" d="M853 1067l-3 3-4-2 2-4 5 3"/>
  <path fill="#dadcd9" d="M945 1064l2-4 4 3-2 3-4-2"/>
  <path fill="#606364" d="M1784 1051l7-6-1 9-6-3"/>
  <path fill="#828685" d="M255 1050l-1-8 4 3-3 5"/>
  <path fill="#c0c3c0" d="M1725 1029l-1 9-4-5 5-4"/>
  <path fill="#dadcd9" d="M1852 1029l4-3-2 7-2-4"/>
  <path fill="#36393b" d="M1304 1024l-2 3-3-1 1-3 4 1"/>
  <path fill="#dadcd9" d="M141 1020l5-3 4 5-5 3-4-5"/>
  <path fill="#4d5252" d="M1998 1013l-3 2-2-4 3-1 2 3"/>
  <path fill="#585b5c" d="M2021 1005l3 1-2 3-3-1 2-3"/>
  <path fill="#90b0c1" d="M1733 997l5-5v7l-5-2"/>
  <path fill="#a0a3a0" d="M1964 980l-5-3 13 1-8 2"/>
  <path fill="#dadcd9" d="M271 970l5-3 4 6-9-3"/>
  <path fill="#acaeab" d="M2054 958l-2-12z"/>
  <path fill="#a0a3a0" d="M1616 935l4 5-5 5-3-3 4-7"/>
  <path fill="#606364" d="M871 927l2-4 5 2-1 3-6-1"/>
  <path fill="#585b5c" d="M723 904l2-3 1 4-3-1"/>
  <path fill="#36393b" d="M1723 889l3 1-1 3-3-1 1-3"/>
  <path fill="#434545" d="M152 886l-4-2 2-3 3 1-1 4"/>
  <path fill="#c0c3c0" d="M2233 874l4-3 3 5-5 5-2-7"/>
  <path fill="#737777" d="M724 879l1-4 5 2-2 3-4-1"/>
  <path fill="#36393b" d="M1190 849l3-2 1 3-3 2-1-3"/>
  <path fill="#c0c3c0" d="M1021 839l-5 2-3-4 3-2 5 4"/>
  <path fill="#acaeab" d="M1311 820l2 3-5 2-1-4 4-1"/>
  <path fill="#8d999a" d="M2334 814l6-2 2 4-8-2M660 806l1 9-4-3 3-6"/>
  <path fill="#b8bab6" d="M2011 804l5-4 4 3-4 4-5-3"/>
  <path fill="#36393b" d="M2483 767l2-3 3 1-2 3-3-1"/>
  <path fill="#b8bab6" d="M120 760h9l-5 5-4-5"/>
  <path fill="#badde4" d="M2315 750l4 8-6 4 2-12"/>
  <path fill="#434545" d="M2045 758l-3 2-3-4 4-1 2 3"/>
  <path fill="#4d5252" d="M984 753l3-2 2 4-3 1-2-3"/>
  <path fill="#acaeab" d="M2266 714v-7 7"/>
  <path fill="#36393b" d="M1641 705l-3-1 1-3 3 1-1 3"/>
  <path fill="#434545" d="M1382 689l-3-2 1-3 3 1-1 4"/>
  <path fill="#acaeab" d="M849 680l5-2 3 4-4 3-4-5"/>
  <path fill="#c0c3c0" d="M553 894l3 5-5 4-2-5 4-4"/>
  <path fill="#3c4855" d="M702 663l3 2-1 3-3-2 1-3"/>
  <path fill="#606364" d="M2327 656l3-3 3 4-4 2-2-3"/>
  <path fill="#737777" d="M1289 653h11l-1 3-10-3"/>
  <path fill="#6a6e6f" d="M808 655l-3-4 2-2 4 3-3 3"/>
  <path fill="#434545" d="M1945 647l3 2-3 2-1-1 1-3"/>
  <path fill="#c0c3c0" d="M1321 616l-3-4 4-5 3 4-4 5"/>
  <path fill="#a0a3a0" d="M200 608l3-4 2 7-5-3"/>
  <path fill="#dae777" d="M881 598l6 3-5 6-1-9"/>
  <path fill="#585b5c" d="M1068 585l3-2 2 5-3 1-2-4"/>
  <path fill="#dadcd9" d="M221 573l5 3-4 5-4-3 3-5"/>
  <path fill="#eff3f0" d="M1954 710l3 4-4 3-2-3 3-4"/>
  <path fill="#434545" d="M1652 551l-2-2 4-3 1 3-3 2"/>
  <path fill="#fff" d="M739 550l4-6 6 4-3 5-7-3"/>
  <path fill="#dadcd9" d="M723 535l9-1-4 5-5-4"/>
  <path fill="#c0c3c0" d="M1944 524l4-4 2 7-6-3"/>
  <path fill="#8d908f" d="M1856 522l-2-2 3-4-1 6"/>
  <path fill="#828685" d="M755 507l-5-2 4-5 3 2-2 5"/>
  <path fill="#36393b" d="M444 504l-2-2 1-2 3 1-2 3"/>
  <path fill="#7796b3" d="M853 496h9l-3 4-6-4"/>
  <path fill="#8d908f" d="M2457 492l2 3-4 2-2-3 4-2"/>
  <path fill="#36393b" d="M1006 488h4l-1 3h-1l-2-3"/>
  <path fill="#737777" d="M847 479l3-2 2 4-5-2"/>
  <path fill="#4d5252" d="M62 464l-2-3 4-3 1 3-3 3"/>
  <path fill="#90b0c1" d="M1922 450l2 6-3 2 1-8M874 456l7-5 3 4-3 4-7-3"/>
  <path fill="#607080" d="M1666 438l3-2 3 4-4 1-2-3"/>
  <path fill="#4d5252" d="M1410 428l3 2-5 2-1-3 3-1"/>
  <path fill="#c0c3c0" d="M1606 430v-12l4 3-4 9"/>
  <path fill="#4d5252" d="M821 719l2-2 3 4-3 1-2-3"/>
  <path fill="#badde4" d="M623 411l-3-5 6-4-3 9"/>
  <path fill="#8eb9d4" d="M2293 390l6-4 3 4-4 3-5-3"/>
  <path fill="#b8bab6" d="M1578 387h8l-3 5-5-5"/>
  <path fill="#8d908f" d="M1045 390l-2 3-5-2 2-4 5 3"/>
  <path fill="#c0c3c0" d="M1117 383l2-10z"/>
  <path fill="#badde4" d="M1958 357l-4-6 3-3 5 4-4 5"/>
  <path fill="#90b0c1" d="M1772 348l6-3 2 3-3 3-5-3"/>
  <path fill="#a0a3a0" d="M1438 328l5-2-2 6-3-4"/>
  <path fill="#8eb9d4" d="M229 331l4-4 5 3-3 4-6-3"/>
  <path fill="#dae777" d="M47 296l8-3 3 5-11-2"/>
  <path fill="#606364" d="M157 268l2 3-4 2-1-3 3-2"/>
  <path fill="#3c4855" d="M1278 227l1-3 4 1-2 4-3-2"/>
  <path fill="#606364" d="M1500 225l-4-2 3-4 2 1-1 5"/>
  <path fill="#eff3f0" d="M811 227v-9l5 5-5 4"/>
  <path fill="#dadcd9" d="M305 227l-3-5 5-4 2 5-4 4"/>
  <path fill="#b8bab6" d="M1177 411h11l-2 3-9-3"/>
  <path fill="#6a6e6f" d="M1895 181l4-4 3 2-1 4-6-2"/>
  <path fill="#828685" d="M2337 930l4-1 2 3-4 1-2-3M676 248l7 1z"/>
  <path fill="#3c4855" d="M1888 945l-2-3h4l-2 3"/>
  <path fill="#acaeab" d="M801 396l-3 1-3-3 6 2"/>
  <path fill="#434545" d="M1869 997l3 2-5 1 2-3"/>
  <path fill="#7796b3" d="M2083 1356l3-3 2 3-3 3-2-3"/>
  <path fill="#c0c3c0" d="M1236 1359l-1-3 3-3-2 6"/>
  <path fill="#434545" d="M2247 1346l2-3 1 4-3-1"/>
  <path fill="#90b0c1" d="M175 1319l3-3 4 4-7-1"/>
  <path fill="#acaeab" d="M1937 244l3-2 3 4-4 1-2-3"/>
  <path fill="#828685" d="M1541 577l-3-2 3-3 3 3-3 2"/>
  <path fill="#b8bab6" d="M1765 1286l2-3 4 3-2 3-4-3"/>
  <path fill="#8d999a" d="M1333 309l-2-2 3-3 2 4-3 1"/>
  <path fill="#badde4" d="M1597 958l2 6-4 2 2-8"/>
  <path fill="#90b0c1" d="M2113 1266l2-2 3 4-3 1-2-3"/>
  <path fill="#b8bab6" d="M538 202l5-3 2 2-2 4-5-3"/>
  <path fill="#dadcd9" d="M414 916l3 2-4 3-2-2 3-3"/>
  <path fill="#607080" d="M1719 538l4-1v3l-2 1-2-3"/>
  <path fill="#ced2cf" d="M2344 749l2-7-2 7"/>
  <path fill="#eff3f0" d="M2038 962l7 9z"/>
  <path fill="#c0c3c0" d="M954 980l6-3 2 2-3 4-5-3"/>
  <path fill="#90b0c1" d="M2087 654l3-3 2 4-3 1-2-2"/>
  <path fill="#607080" d="M1797 451l2 3-4 2-1-3 3-2"/>
  <path fill="#b8bab6" d="M1070 824l2-4 3 3-1 3-4-2"/>
  <path fill="#c0c3c0" d="M2200 269l5-1 2 3-5 3-2-5"/>
  <path fill="#badde4" d="M2432 434l6-2-1 6-5-4"/>
  <path fill="#8d999a" d="M1049 989l3-2 2 4-5-2"/>
  <path fill="#607080" d="M2238 429l2-4 3 2-1 3-4-1M1939 347l3 2h-7l4-2"/>
  <path fill="#c0c3c0" d="M983 645l3-3 2 3-3 3-2-3"/>
  <path fill="#828685" d="M2496 641l5-3-3 6-2-3"/>
  <path fill="#a0a3a0" d="M2400 409l1 3-4 2-1-3 4-2"/>
  <path fill="#8d999a" d="M1367 408l5-2 2 2-4 4-3-4"/>
  <path fill="#dadcd9" d="M1467 582l-2-4 3-4 4 2-5 6"/>
  <path fill="#ced2cf" d="M640 1033l3-2 2 3-4 3-1-4"/>
  <path fill="#7796b3" d="M283 228l1 3-3 2 2-5"/>
  <path fill="#90b0c1" d="M1858 529l3-2 3 4-6-2"/>
  <path fill="#3c4855" d="M2467 1035l-3-2 1-3 3 2-1 3"/>
  <path fill="#b8bab6" d="M1592 1039l-2-3 4-2-2 5"/>
  <path fill="#ced2cf" d="M2032 205l2-4 2 7-4-3"/>
  <path fill="#b8bab6" d="M1573 517l3-2 3 3-4 2-2-3"/>
  <path fill="#7796b3" d="M1543 886l2-3 3 4-3 2-2-3"/>
  <path fill="#b8bab6" d="M732 515l2-2 3 2-3 4-2-4"/>
  <path fill="#828685" d="M1117 505l3-2 2 4-3 2-2-4"/>
  <path fill="#c0c3c0" d="M2207 624l5-1 1 3-4 1-2-3"/>
  <path fill="#ced2cf" d="M2485 98l2-4 3 3-1 3-4-2"/>
  <path fill="#eff3f0" d="M810 1083l-3-3 2-4 1 7"/>
  <path fill="#c0c3c0" d="M1287 781l-3-3 2-4 3 1-2 6"/>
  <path fill="#b8bab6" d="M2004 1130l3-2 1 4-3 1-1-3"/>
  <path fill="#dadcd9" d="M1131 1138l-4-1 6-2-2 3"/>
  <path fill="#c0c3c0" d="M296 607l1 3-4 2-1-4 4-1"/>
  <path fill="#acaeab" d="M1785 485l5-2 2 3-3 3-4-4"/>
  <path fill="#a0a3a0" d="M354 43l4-3 2 3-4 3-2-3"/>
  <path fill="#eff3f0" d="M1626 37l4-3 2 3-3 4-3-4"/>
  <path fill="#ced2cf" d="M1983 481l3-2 2 3-4 3-1-4"/>
  <path fill="#7796b3" d="M1805 1177l3-2 3 4-6-2"/>
  <path fill="#3c4855" d="M145 724l2-3 3 1-1 3-4-1"/>
  <path fill="#c0c3c0" d="M1213 1222l-2 3-2-3 3-3 1 3"/>
  <path fill="#eff3f0" d="M92 731l3 4-6-2 3-2"/>
  <path fill="#607080" d="M2293 1232l2-4v6l-2-2"/>
  <path fill="#3c4855" d="M2075 238l-2-1 1-1 2 1-1 1"/>
  <path fill="#acaeab" d="M10 237l-2-4 3-2-1 6"/>
  <path fill="#6a6e6f" d="M2072 1431l2-1-1 4-1-3"/>
  <path fill="#8d908f" d="M1389 1416l2-3 1 5-3-2"/>
  <path fill="#3c4855" d="M2335 228v1h-2l1-2 1 1"/>
  <path fill="#737777" d="M504 1412l-3 1-2-1 1-2 4 2"/>
  <path fill="#a0a3a0" d="M1496 1390l1 7-3-2 2-5"/>
  <path fill="#8d999a" d="M2055 1304l2-2 4 1-6 1"/>
  <path fill="#434545" d="M2089 1037l-1 9-5-6 6-3"/>
  <path fill="#585b5c" d="M156 638l3-1 1 1-3 2-1-2"/>
  <path fill="#8d999a" d="M346 889l3-2 2 3-5-1"/>
  <path fill="#acaeab" d="M1217 632l3 2-3 2-3-2 3-2"/>
  <path fill="#8d908f" d="M2473 214l2-3-1 6-1-3"/>
  <path fill="#606364" d="M897 1047l-2-3 3-1 1 3-2 1"/>
  <path fill="#607080" d="M2500 1275l2 2-2 2v-4"/>
  <path fill="#434545" d="M1750 1276l1-2 1 1-1 2-1-1"/>
  <path fill="#c0c3c0" d="M621 473l-4-2 4-3 3 3-3 2"/>
  <path fill="#737777" d="M2087 460l-2-3 5 1-3 2"/>
  <path fill="#b8bab6" d="M1598 602l2-3 3 1-2 4-3-2M895 162l2-2 2 3-2 3-2-4"/>
  <path fill="#607080" d="M227 156l3 2-2 3-1-5"/>
  <path fill="#8d999a" d="M1243 892l2-3v6l-2-3"/>
  <path fill="#585b5c" d="M1084 1068l3 2-1 1-3-2 1-1"/>
  <path fill="#737777" d="M1396 778l-2-2h5l-3 2"/>
  <path fill="#606364" d="M185 929l1-3 2 1-2 3-1-1"/>
  <path fill="#828685" d="M1686 777l3-1-1 5-2-4"/>
  <path fill="#acaeab" d="M2535 699l3 2-3 2-3-2 3-2"/>
  <path fill="#36393b" d="M1291 78l1 2h-2l1-2"/>
  <path fill="#606364" d="M909 429l1-3v4l-1-1"/>
  <path fill="#6a6e6f" d="M754 588l4-1-1 2-3-1"/>
  <path fill="#b8bab6" d="M1900 657l6-3z"/>
  <path fill="#8d908f" d="M164 899l2-3-1 6-1-3"/>
  <path fill="#434545" d="M1877 1241l1 2-2 1 1-3"/>
  <path fill="#737777" d="M2220 1137l-3-2 1-1h3l-1 3"/>
  <path fill="#4d5252" d="M476 721h2l-2 2-2-1 2-1"/>
  <path fill="#6a6e6f" d="M1543 1167l-2-2h4l-2 2"/>
  <path fill="#828685" d="M727 1022l-3-4h3v4"/>
  <path fill="#36393b" d="M65 577l1 1-2 1 1-2"/>
  <path fill="#606364" d="M1478 391l-3 2-1-3 2-1 2 2"/>
  <path fill="#b8bab6" d="M912 808l2-3 2 3-3 3-1-3"/>
  <path fill="#606364" d="M1690 355l-1-1h4l-3 1"/>
  <path fill="#a0a3a0" d="M383 608l3-2 2 4-5-2"/>
  <path fill="#828685" d="M963 908l3 2h-6l3-2"/>
  <path fill="#434545" d="M2014 479l-1-2h3l-2 2"/>
  <path fill="#a0a3a0" d="M2238 313l-2 3v-6l2 3"/>
  <path fill="#b8bab6" d="M822 1180l3 2-1 3-3-1 1-4"/>
  <path fill="#737777" d="M1814 295l3-1 2 2-5-1"/>
  <path fill="#ced2cf" d="M1333 636l4 2-4 2-2-2 2-2"/>
  <path fill="#4d5252" d="M1734 480h-2v-2l2 2"/>
  <path fill="#585b5c" d="M693 263l-1-2h4l-3 2"/>
  <path fill="#6a6e6f" d="M312 488l3-2 2 2h-5"/>
  <path fill="#606364" d="M1797 623l-1-1 1-2 1 2-1 1"/>
  <path fill="#4d5252" d="M2034 1311l2-1 1 2-2 1-1-2M687 194h2v1l-2-1"/>
  <path fill="#8eb9d4" d="M229 896l8 7 5-4-6-7-7 4"/>
  <path fill="#90b0c1" d="M2062 1230l-12-15 10-14 10 10-8 19M2351 1160l2 14-8-5 6-9"/>
  <path fill="#8eb9d4" d="M1727 659l-8-11 7-8 7 8-6 11"/>
  <path fill="#679acb" d="M2135 1068l3-8-5-4 2 12"/>
  <path fill="#eff3f0" d="M229 896l7-4 6 7-5 4-8-7"/>
  <path fill="#badde4" d="M2135 1068l-2-12 5 4-3 8"/>
</svg>
